Coordinates
version=1
nRows=29
nColumns=30
inDegrees=yes

Units are S.I. units (second, meters, Newtons, ...)
Angles are in degrees.

endheader
time	floatyaw	floatroll	floatpitch	floatx	floaty	floatz	pro_sup_l	deviation_l	flexion_l	cmc_flexion_l	cmc_abduction_l	mp_flexion_l	ip_flexion_l	2mcp_flexion_l	2mcp_abduction_l	2pm_flexion_l	2md_flexion_l	3mcp_flexion_l	3mcp_abduction_l	3pm_flexion_l	3md_flexion_l	4mcp_flexion_l	4mcp_abduction_l	4pm_flexion_l	4md_flexion_l	5mcp_flexion_l	5mcp_abduction_l	5pm_flexion_l	5md_flexion_l
0.005000	-160.147433	-5.066637	-73.570646	-0.072018	-0.120222	-0.126604	-3.741713	-34.326132	-29.043305	16.909563	8.524065	-35.084860	-56.095525	60.182565	15.917706	62.432359	55.750427	62.968116	6.260464	80.402125	52.204797	48.482985	-6.101118	91.512100	68.482000	12.417486	-13.536137	90.398968	73.792610
0.015000	-160.147433	-5.066637	-73.570646	-0.071698	-0.115580	-0.125878	-6.496213	-34.725775	-29.421969	14.729885	8.336702	-35.673026	-56.324988	63.232290	16.035134	62.003695	58.306455	66.432507	6.224391	83.934979	54.433488	50.866719	-6.042535	96.233176	72.274004	11.774665	-13.316655	92.094416	75.837813
0.025000	-160.147433	-5.066637	-73.570646	-0.070497	-0.111273	-0.124364	-7.948159	-34.568580	-28.275166	13.007634	6.936411	-35.649595	-55.853497	64.158781	15.847849	61.278402	60.229044	68.163813	6.120859	86.096072	55.840985	51.933109	-5.941029	99.056421	74.705970	10.565437	-13.017792	92.732878	76.727014
0.035000	-160.147433	-5.066637	-73.570646	-0.068827	-0.107732	-0.122499	-8.355946	-34.091084	-26.131377	11.938015	4.876553	-35.297295	-55.086035	63.678631	15.600633	60.590358	61.787394	68.654077	6.010269	87.201007	56.704691	51.954354	-5.846684	100.474087	76.084421	9.042836	-12.785790	92.675456	76.893057
0.045000	-160.147433	-5.066637	-73.570646	-0.067053	-0.105340	-0.120703	-8.129840	-33.484159	-23.652493	11.605728	2.889454	-34.887898	-54.415364	62.598905	15.470590	60.090365	63.174864	68.418324	5.930573	87.635955	57.343085	51.317763	-5.790328	101.073245	76.796527	7.491061	-12.696572	92.305074	76.747800
0.055000	-160.147433	-5.066637	-73.570646	-0.065423	-0.104285	-0.119291	-7.696075	-32.837907	-21.403736	11.942505	1.563949	-34.572132	-54.053404	61.500872	15.517210	59.755787	64.438292	67.819082	5.894075	87.717685	57.995436	50.367508	-5.777949	101.316977	77.169918	6.124203	-12.750343	91.905230	76.569135
0.065000	-160.147433	-5.066637	-73.570646	-0.064041	-0.104459	-0.118420	-7.371473	-32.153899	-19.715588	12.733726	1.125204	-34.363464	-53.990067	60.613221	15.693333	59.482734	65.509260	67.023470	5.894537	87.637968	58.770468	49.309300	-5.796256	101.456402	77.415177	5.026001	-12.898190	91.592914	76.477910
0.075000	-160.147433	-5.066637	-73.570646	-0.062909	-0.105485	-0.118089	-7.299417	-31.406648	-18.661329	13.684238	1.417715	-34.199182	-54.075019	59.887061	15.900282	59.187330	66.288846	66.074282	5.917564	87.480692	59.658561	48.215126	-5.824586	101.561636	77.633190	4.157044	-13.078517	91.340714	76.480081
0.085000	-160.147433	-5.066637	-73.570646	-0.061987	-0.106864	-0.118176	-7.464107	-30.603598	-18.124244	14.516742	2.065891	-34.021421	-54.147886	59.177624	16.050673	58.856884	66.725078	65.000695	5.948760	87.272408	60.576638	47.100616	-5.846291	101.611630	77.850115	3.419649	-13.243500	91.068412	76.531060
0.095000	-160.147433	-5.066637	-73.570646	-0.061237	-0.108153	-0.118499	-7.759178	-29.802631	-17.903514	15.056708	2.693009	-33.822868	-54.130175	58.401021	16.106252	58.537298	66.845411	63.887101	5.977936	87.027559	61.418158	46.003583	-5.854470	101.578423	78.053053	2.735369	-13.368883	90.735814	76.587132
0.105000	-160.147433	-5.066637	-73.570646	-0.060642	-0.109095	-0.118883	-8.065255	-29.083814	-17.806631	15.267016	3.075496	-33.638561	-54.036495	57.582024	16.079336	58.284438	66.739741	62.861485	6.000335	86.766746	62.094790	45.003671	-5.851135	101.466895	78.216649	2.086152	-13.451495	90.374491	76.628504
0.115000	-160.147433	-5.066637	-73.570646	-0.060189	-0.109651	-0.119196	-8.300194	-28.503693	-17.698268	15.223911	3.177991	-33.505727	-53.923782	56.800139	16.008911	58.120266	66.514840	62.028174	6.016222	86.509187	62.563942	44.180326	-5.842620	101.307831	78.320125	1.502940	-13.501800	90.051127	76.656913
0.125000	-160.147433	-5.066637	-73.570646	-0.059851	-0.109946	-0.119371	-8.432291	-28.065569	-17.506775	15.055113	3.093266	-33.429713	-53.830970	56.106695	15.932403	58.019591	66.250137	61.406727	6.029431	86.257347	62.837385	43.557293	-5.834913	101.129812	78.355696	1.024674	-13.536084	89.807291	76.681251
0.135000	-160.147433	-5.066637	-73.570646	-0.059581	-0.110166	-0.119391	-8.468116	-27.722259	-17.208397	14.874796	2.949891	-33.379962	-53.751955	55.483350	15.869232	57.927987	65.976672	60.924337	6.045091	85.992409	62.969297	43.083887	-5.831147	100.939429	78.329199	0.663881	-13.570037	89.626970	76.705018
0.145000	-160.147433	-5.066637	-73.570646	-0.059323	-0.110467	-0.119280	-8.432493	-27.405074	-16.808755	14.743037	2.841710	-33.312973	-53.649836	54.861786	15.820073	57.793718	65.683210	60.462814	6.067202	85.685776	63.029702	42.664903	-5.831490	100.722618	78.255209	0.399171	-13.614338	89.449514	76.722456
0.155000	-160.147433	-5.066637	-73.570646	-0.059034	-0.110924	-0.119074	-8.352476	-27.058931	-16.329897	14.658525	2.800800	-33.201289	-53.490858	54.175947	15.775945	57.592976	65.338627	59.924014	6.097036	85.317275	63.075914	42.213072	-5.834451	100.460192	78.150237	0.190844	-13.672744	89.209070	76.722111
0.165000	-160.147433	-5.066637	-73.570646	-0.058698	-0.111526	-0.118813	-8.248805	-26.664024	-15.801763	14.577520	2.807194	-33.048142	-53.269946	53.404256	15.728389	57.335772	64.915799	59.272831	6.133037	84.886752	63.134921	41.688221	-5.838394	100.142755	78.027468	0.002841	-13.742696	88.869451	76.692753
0.175000	-160.147433	-5.066637	-73.570646	-0.058325	-0.112207	-0.118525	-8.133005	-26.235847	-15.254607	14.445564	2.816345	-32.881160	-53.013264	52.577332	15.674996	57.052969	64.407563	58.538948	6.172066	84.412744	63.203016	41.103909	-5.842482	99.775457	77.894842	-0.183392	-13.817768	88.435167	76.627577
0.185000	-160.147433	-5.066637	-73.570646	-0.057942	-0.112891	-0.118225	-8.007370	-25.808558	-14.711707	14.227767	2.786567	-32.733288	-52.761686	51.754794	15.619472	56.775731	63.831816	57.786425	6.211083	83.921957	63.259209	40.506161	-5.846816	99.372979	77.756105	-0.367605	-13.890854	87.939266	76.525355
0.195000	-160.147433	-5.066637	-73.570646	-0.057576	-0.113521	-0.117916	-7.866787	-25.413857	-14.184590	13.925775	2.696177	-32.624984	-52.549407	50.992030	15.568604	56.520799	63.226318	57.075291	6.248263	83.438083	63.282387	39.943097	-5.852064	98.951277	77.612899	-0.538065	-13.956872	87.421711	76.389364
0.205000	-160.147433	-5.066637	-73.570646	-0.057244	-0.114077	-0.117598	-7.702576	-25.066457	-13.673151	13.575770	2.548032	-32.557329	-52.390540	50.317298	15.528811	56.288119	62.635982	56.436615	6.283164	82.976100	63.262719	39.443459	-5.858938	98.522163	77.466016	-0.680780	-14.014074	86.912689	76.225778
0.215000	-160.147433	-5.066637	-73.570646	-0.056950	-0.114569	-0.117270	-7.507575	-24.760959	-13.170657	13.230757	2.364209	-32.516622	-52.278364	49.727481	15.503592	56.068098	62.098087	55.868995	6.316210	82.542501	63.203902	39.011597	-5.867832	98.092586	77.315561	-0.785765	-14.063719	86.427166	76.042679
0.225000	-160.147433	-5.066637	-73.570646	-0.056686	-0.115025	-0.116935	-7.280018	-24.478326	-12.670593	12.937218	2.175377	-32.484573	-52.193791	49.198318	15.492217	55.851235	61.631982	55.350848	6.348076	82.138363	63.118921	38.635334	-5.878693	97.666588	77.160970	-0.849293	-14.108585	85.968243	75.849401
0.235000	-160.147433	-5.066637	-73.570646	-0.056443	-0.115474	-0.116604	-7.024162	-24.196593	-12.171373	12.717272	2.009574	-32.447256	-52.115922	48.699411	15.489801	55.634202	61.237309	54.856734	6.379289	81.762096	63.024130	38.297439	-5.891093	97.247068	77.001773	-0.873861	-14.151265	85.533211	75.655071
0.245000	-160.147433	-5.066637	-73.570646	-0.056210	-0.115933	-0.116284	-6.748170	-23.900344	-11.676984	12.563520	1.884566	-32.398892	-52.028837	48.206277	15.488933	55.420481	60.900184	54.368540	6.410046	81.410708	62.934852	37.983133	-5.904421	96.836080	76.838894	-0.867680	-14.193047	85.117958	75.466082
0.255000	-160.147433	-5.066637	-73.570646	-0.055980	-0.116403	-0.115986	-6.461601	-23.585736	-11.194649	12.447588	1.805970	-32.340400	-51.923160	47.706487	15.482388	55.217153	60.602995	53.879160	6.440122	81.080154	62.862921	37.681992	-5.918076	96.434488	76.675368	-0.843727	-14.233647	84.719082	75.283822
0.265000	-160.147433	-5.066637	-73.570646	-0.055755	-0.116876	-0.115711	-6.174046	-23.260372	-10.732028	12.337276	1.770163	-32.275516	-51.795087	47.200525	15.465786	55.030960	60.332508	53.391303	6.468819	80.766198	62.815232	37.387461	-5.931622	96.042527	76.515654	-0.817170	-14.271644	84.335014	75.104582
0.275000	-160.147433	-5.066637	-73.570646	-0.055536	-0.117333	-0.115458	-5.894654	-22.939178	-10.295828	12.213123	1.768901	-32.207753	-51.646046	46.699352	15.438950	54.866162	60.083068	52.914798	6.495052	80.466622	62.792816	37.097442	-5.944827	95.661935	76.363985	-0.800771	-14.305276	83.967175	74.922658
0.285000	-160.147433	-5.066637	-73.570646	-0.055332	-0.117757	-0.115225	-5.631524	-22.638444	-9.891974	12.075556	1.793054	-32.139677	-51.483276	46.220333	15.405527	54.724842	59.855310	52.463922	6.517625	80.183935	62.790934	36.816234	-5.957573	95.298568	76.223072	-0.799937	-14.333281	83.620806	74.735610
